HIERARCHY
ROOT Hips
{
	OFFSET 0.000000 89.005402 0.000000
	CHANNELS 6 Xposition Yposition Zposition Xrotation Yrotation Zrotation
	JOINT Spine
	{
		OFFSET 0.116900 10.681000 0.373400
		CHANNELS 3 Xrotation Yrotation Zrotation
		JOINT Spine1
		{
			OFFSET 0.000000 13.840401 0.053500
			CHANNELS 3 Xrotation Yrotation Zrotation
			JOINT Spine2
			{
				OFFSET 0.000000 14.712700 -0.366200
				CHANNELS 3 Xrotation Yrotation Zrotation
				JOINT Neck
				{
					OFFSET 0.000000 35.415497 -3.314200
					CHANNELS 3 Xrotation Yrotation Zrotation
					JOINT Head
					{
						OFFSET 0.000000 16.899200 1.218300
						CHANNELS 3 Xrotation Yrotation Zrotation
						JOINT HeadTop_End
						{
							OFFSET 0.000000 22.206207 2.192500
							CHANNELS 3 Xrotation Yrotation Zrotation
							End Site
							{
								OFFSET 0.000000 22.314178 0.000000
							}
						}
					}
				}
				JOINT LeftShoulder
				{
					OFFSET 12.896400 26.716293 -4.548400
					CHANNELS 3 Xrotation Yrotation Zrotation
					JOINT LeftArm
					{
						OFFSET 19.027000 -4.857010 -1.718400
						CHANNELS 3 Xrotation Yrotation Zrotation
						JOINT LeftForeArm
						{
							OFFSET 24.179897 0.000000 0.000000
							CHANNELS 3 Xrotation Yrotation Zrotation
							JOINT LeftHand
							{
								OFFSET 27.156403 0.000000 0.000000
								CHANNELS 3 Xrotation Yrotation Zrotation
								JOINT LeftHandIndex1
								{
									OFFSET 16.441200 0.000000 0.000000
									CHANNELS 3 Xrotation Yrotation Zrotation
									JOINT LeftHandIndex2
									{
										OFFSET 4.821899 0.000000 0.000000
										CHANNELS 3 Xrotation Yrotation Zrotation
										JOINT LeftHandIndex3
										{
											OFFSET 6.386497 0.000000 0.000000
											CHANNELS 3 Xrotation Yrotation Zrotation
											JOINT LeftHandIndex4
											{
												OFFSET 5.188988 0.000000 0.000000
												CHANNELS 3 Xrotation Yrotation Zrotation
												End Site
												{
													OFFSET -0.178703 5.185913 0.000177
												}
											}
										}
									}
								}
								JOINT LeftHandThumb1
								{
									OFFSET 6.534897 -5.032593 5.900300
									CHANNELS 3 Xrotation Yrotation Zrotation
									JOINT LeftHandThumb2
									{
										OFFSET 3.818176 -2.204422 2.204423
										CHANNELS 3 Xrotation Yrotation Zrotation
										JOINT LeftHandThumb3
										{
											OFFSET 3.252098 -1.877594 1.877601
											CHANNELS 3 Xrotation Yrotation Zrotation
											JOINT LeftHandThumb4
											{
												OFFSET 5.251778 -3.032120 3.032117
												CHANNELS 3 Xrotation Yrotation Zrotation
												End Site
												{
													OFFSET 0.000023 6.780014 0.000000
												}
											}
										}
									}
								}
							}
						}
					}
				}
				JOINT RightShoulder
				{
					OFFSET -12.896300 26.716293 -4.548400
					CHANNELS 3 Xrotation Yrotation Zrotation
					JOINT RightArm
					{
						OFFSET -19.027000 -4.857010 -1.718400
						CHANNELS 3 Xrotation Yrotation Zrotation
						JOINT RightForeArm
						{
							OFFSET -24.179897 0.000000 0.000000
							CHANNELS 3 Xrotation Yrotation Zrotation
							JOINT RightHand
							{
								OFFSET -27.156403 0.000000 0.000000
								CHANNELS 3 Xrotation Yrotation Zrotation
								JOINT RightHandThumb1
								{
									OFFSET -6.591202 -4.852203 5.988100
									CHANNELS 3 Xrotation Yrotation Zrotation
									JOINT RightHandThumb2
									{
										OFFSET -3.818176 -2.204422 2.204423
										CHANNELS 3 Xrotation Yrotation Zrotation
										JOINT RightHandThumb3
										{
											OFFSET -3.252098 -1.877594 1.877601
											CHANNELS 3 Xrotation Yrotation Zrotation
											JOINT RightHandThumb4
											{
												OFFSET -5.251778 -3.032120 3.032117
												CHANNELS 3 Xrotation Yrotation Zrotation
												End Site
												{
													OFFSET -0.000023 6.780014 0.000000
												}
											}
										}
									}
								}
								JOINT RightHandIndex1
								{
									OFFSET -16.029404 0.000000 0.000000
									CHANNELS 3 Xrotation Yrotation Zrotation
									JOINT RightHandIndex2
									{
										OFFSET -5.213303 0.000000 0.000000
										CHANNELS 3 Xrotation Yrotation Zrotation
										JOINT RightHandIndex3
										{
											OFFSET -6.386528 0.000000 0.000000
											CHANNELS 3 Xrotation Yrotation Zrotation
											JOINT RightHandIndex4
											{
												OFFSET -5.189026 0.000000 0.000000
												CHANNELS 3 Xrotation Yrotation Zrotation
												End Site
												{
													OFFSET 0.236702 5.183624 0.001972
												}
											}
										}
									}
								}
							}
						}
					}
				}
			}
		}
	}
	JOINT LeftUpLeg
	{
		OFFSET 14.073000 -7.904099 -1.463000
		CHANNELS 3 Xrotation Yrotation Zrotation
		JOINT LeftLeg
		{
			OFFSET -0.109806 -34.073280 4.093200
			CHANNELS 3 Xrotation Yrotation Zrotation
			JOINT LeftFoot
			{
				OFFSET 0.109806 -29.899420 -6.319000
				CHANNELS 3 Xrotation Yrotation Zrotation
				JOINT LeftToeBase
				{
					OFFSET 1.551100 -14.988700 20.535801
					CHANNELS 3 Xrotation Yrotation Zrotation
					JOINT LeftToe_End
					{
						OFFSET 0.221200 0.570800 13.248301
						CHANNELS 3 Xrotation Yrotation Zrotation
						End Site
						{
							OFFSET 0.000000 13.262435 0.000000
						}
					}
				}
			}
		}
	}
	JOINT RightUpLeg
	{
		OFFSET -13.839300 -7.904099 -1.463000
		CHANNELS 3 Xrotation Yrotation Zrotation
		JOINT RightLeg
		{
			OFFSET 0.109694 -34.073219 4.093300
			CHANNELS 3 Xrotation Yrotation Zrotation
			JOINT RightFoot
			{
				OFFSET -0.109694 -29.899384 -6.319200
				CHANNELS 3 Xrotation Yrotation Zrotation
				JOINT RightToeBase
				{
					OFFSET -1.551100 -14.988700 20.535801
					CHANNELS 3 Xrotation Yrotation Zrotation
					JOINT RightToe_End
					{
						OFFSET -0.221200 0.570900 13.248299
						CHANNELS 3 Xrotation Yrotation Zrotation
						End Site
						{
							OFFSET 0.000000 13.262440 0.000000
						}
					}
				}
			}
		}
	}
}
MOTION
Frames: 4
Frame Time: 0.033333
0.051808 74.985603 3.063129 2.023014 -1.837485 2.808692 25.957950 -0.837486 -2.988010 -4.322737 -0.013227 0.626541 -4.319555 -0.060481 0.643187 17.164863 0.282421 -0.173172 7.633087 7.619071 -1.821875 0.000002 0.000000 -0.000000 0.629985 -6.864875 -8.287976 32.983253 2.427452 -58.004091 -0.000970 -92.459007 -0.001007 13.991370 -10.464217 21.061624 3.267170 7.614475 -56.448337 0.961810 3.217982 -33.274175 0.100123 1.079579 -10.596417 -0.000002 0.000001 -0.000002 -6.414437 -8.233359 17.003705 28.775426 26.961989 -8.720018 40.588437 9.200569 -48.079167 0.000001 -0.000002 -0.000000 0.461161 5.669693 16.233319 10.950447 0.950900 60.973843 0.000005 67.195025 0.000003 0.020362 2.432642 -5.840423 -6.894112 10.207323 -16.478390 45.565807 -41.947682 25.541697 7.353157 14.725929 -47.356365 -0.000001 0.000002 0.000001 -6.100292 2.236966 44.267508 2.039594 -3.853296 55.772787 0.213033 -1.393800 17.378370 -0.000000 0.000001 0.000001 -58.588939 -1.488321 0.180105 89.185987 3.663756 -2.419899 10.406673 -0.365704 -8.402698 -26.763232 -1.462046 2.899690 -0.000000 -0.000000 -0.000000 -33.127708 -3.291830 -1.921723 62.291776 -3.640110 -2.973772 -31.666000 -11.387892 1.588856 -0.158249 0.000002 0.000000 0.000000 0.000002 0.000000 
-1.000208 73.163544 6.084057 3.038502 -3.032836 3.103590 25.305540 -0.511060 -4.276888 -3.848313 0.244894 0.796770 -3.853246 0.224264 0.778351 17.508696 0.209694 -0.287386 6.924788 6.914670 -2.295737 -0.000002 0.000000 -0.000000 0.598527 -7.114883 -9.268986 30.454902 3.364133 -61.210120 0.001505 -87.341980 0.001523 11.494193 -9.597163 18.818027 1.910269 6.692275 -54.820307 0.898968 3.120260 -32.137348 0.107917 1.120401 -11.002133 0.000001 -0.000003 0.000001 -6.414445 -8.233364 17.003701 28.039921 25.169708 -8.547608 32.508944 11.119200 -40.987716 0.000001 0.000001 -0.000000 0.320462 8.116321 16.224908 7.296519 0.315272 60.401917 0.000042 62.489653 -0.000061 2.184931 1.608580 -5.436862 -5.170892 9.436841 -13.882939 40.448824 -40.153272 20.760698 5.857314 13.569091 -42.738314 -0.000002 -0.000001 -0.000002 -6.138715 1.977981 45.367728 2.302434 -4.019145 59.600217 0.213683 -1.395879 17.405117 -0.000002 -0.000001 -0.000000 -55.205164 -0.784104 0.930819 77.231428 5.334306 -3.058322 -1.395002 -1.939187 -3.695304 -23.531895 -0.248566 0.570741 -0.000000 -0.000000 -0.000000 -33.875365 -4.011341 -1.466720 67.963415 -2.725759 -2.641233 -36.539688 -10.719406 -0.420199 -3.133950 -0.000004 0.000003 -0.000000 0.000001 0.000000 
-2.052838 71.279037 9.381297 4.284701 -3.513696 3.807702 24.149993 -0.143607 -5.244431 -3.282360 0.494445 0.831747 -3.294419 0.491623 0.783642 17.912108 0.091214 -0.328699 7.446098 5.652927 -2.483587 -0.000001 0.000000 -0.000000 0.581052 -7.284392 -9.656121 29.636529 2.481074 -61.232496 0.000574 -85.628408 0.000572 9.796601 -8.761129 16.773917 0.522006 5.475987 -50.034172 0.954008 3.206056 -33.134470 0.137597 1.263555 -12.429498 -0.000003 0.000001 -0.000001 -6.414438 -8.233359 17.003698 29.447934 24.522512 -11.144675 23.856657 11.366762 -32.113237 0.000001 -0.000000 -0.000002 0.211920 9.543858 16.710700 6.472688 -3.156528 59.648172 0.000013 64.650117 -0.000022 7.308795 -0.777131 -6.740622 -3.158755 8.649610 -10.886831 34.060005 -37.210840 14.889922 4.695855 12.738666 -38.792234 0.000001 0.000004 -0.000000 -6.345378 2.015009 46.008427 2.648951 -4.202806 64.431142 0.212726 -1.392847 17.366009 0.000003 -0.000003 0.000001 -50.832327 -0.015117 2.708474 68.253459 6.036258 -4.378179 -17.068185 -0.017054 -3.527207 -3.691899 -0.001340 0.019350 -0.000000 -0.000000 0.000000 -35.748756 -4.921989 -2.219833 75.627017 -1.488727 -2.029316 -40.324682 -11.489523 -1.443557 -9.598646 -0.000008 -0.000001 -0.000000 0.000001 -0.000000 
-2.804157 69.120499 12.737414 5.751646 -3.819070 4.051041 22.688770 0.295247 -4.902240 -2.834543 0.679112 0.576008 -2.846167 0.682661 0.508272 18.188756 -0.015344 -0.360753 8.115276 4.728335 -3.052661 -0.000000 0.000000 -0.000000 0.573588 -7.426729 -9.734275 29.809425 1.003397 -61.174173 -0.000003 -85.277207 0.000012 8.898611 -8.424373 15.434592 -0.513183 4.044777 -42.976701 1.000374 3.275888 -33.954786 0.242646 1.670177 -16.531047 -0.000000 0.000001 -0.000000 -6.414433 -8.233359 17.003700 31.198077 23.558081 -14.442285 13.147295 8.065641 -19.505224 0.000000 0.000000 -0.000003 0.251934 8.965007 16.627151 7.751180 -4.614150 58.290672 -0.000024 69.865916 0.000010 8.088370 -0.759080 -8.474832 -1.111550 7.967694 -7.870320 27.905996 -33.706014 9.462252 3.557464 11.743763 -34.859766 -0.000002 -0.000001 -0.000001 -6.557388 2.289996 45.788010 2.990459 -4.349322 69.008727 0.208287 -1.378565 17.182376 0.000000 -0.000002 0.000002 -53.109464 0.357790 4.972422 70.038317 3.415125 -5.856831 -21.751397 -0.553085 -2.592777 -0.254244 -0.000002 -0.000001 -0.000000 -0.000000 0.000000 -42.981793 -5.651169 -5.175432 88.668505 -0.579174 -1.072544 -35.533953 -14.371575 2.370737 -27.996346 0.000000 0.000002 0.000001 0.000000 -0.000000 
